# xmcd
#
# Track frame offsets: 
#        150
#        22492
#        36270
#        41425
#        61345
#        71887
#        92832
#        122617
#        143902
#        160980
#        176962
#        182605
#        191032
#        207262
#        228930
#
# Disc length: 3446 seconds
#
# Revision: 0
# Processed by: cddbd v1.5.2PL0 Copyright (c) Steve Scherf et al.
# Submitted via: ExactAudioCopy v0.99pb4
#
DISCID=e00d740f
DTITLE=Bill Laswell - Imaginary Cuba
DYEAR=1900
DGENRE=Jazz
TTITLE0=Habana Transmission 1#/Avisale A La Vecina Dub
TTITLE1=Para Clave Y Guaguanco
TTITLE2=Loungin With F.E.
TTITLE3=Chacon And Daniel
TTITLE4=Dejala En La Puntica
TTITLE5=Habana Transmission 2#/Cuban Evolution
TTITLE6=Los Ibellis
TTITLE7=Habana Transmission 3#/Shango Sound Scan
TTITLE8=Hombre Lobo, No! Hombre Nuevo, Si
TTITLE9=Guerillero Heroico [El Che Vive!]
TTITLE10=Shango
TTITLE11=Pompa At The House
TTITLE12=Madre No Me Pida In Dub
TTITLE13=Chaos In The Heat [Last Transmission]
TTITLE14=Drafting Shadows/'Leaving La Habana [Peaceful]
EXTD=
EXTT0=
EXTT1=
EXTT2=
EXTT3=
EXTT4=
EXTT5=
EXTT6=
EXTT7=
EXTT8=
EXTT9=
EXTT10=
EXTT11=
EXTT12=
EXTT13=
EXTT14=
PLAYORDER=
